<?xml version="1.0" encoding="utf-8"?>
<!-- Generator: Adobe Illustrator 27.5.0, SVG Export Plug-In . SVG Version: 6.00 Build 0)  -->
<svg version="1.1" id="Ebene_1" xmlns="http://www.w3.org/2000/svg" xmlns:xlink="http://www.w3.org/1999/xlink" x="0px" y="0px"
	 viewBox="0 0 500 650" style="enable-background:new 0 0 500 650;" xml:space="preserve">
<style type="text/css">
	.st0{fill:#0CA678;}
	.st1{fill:url(#SVGID_1_);}
	.st2{enable-background:new    ;}
	.st3{fill:#F2F2F2;}
	.st4{fill:#FFFFFF;}
</style>
<g>
	<g id="Logo">
		<path class="st0" d="M450,650H50c-27.6,0-50-22.4-50-50l0,0V50C0,22.4,22.4,0,50,0h250l200,200v400C500,627.6,477.6,650,450,650
			L450,650z"/>
		
			<linearGradient id="SVGID_1_" gradientUnits="userSpaceOnUse" x1="337.7922" y1="576.2929" x2="641.7922" y2="340.2928" gradientTransform="matrix(1 0 0 1 0 -428)">
			<stop  offset="0" style="stop-color:#FFFFFF"/>
			<stop  offset="1" style="stop-color:#B3B3B3"/>
		</linearGradient>
		<path class="st1" d="M300,0l200,200H350c-27.6,0-50-22.4-50-50V0z"/>
		<g class="st2">
			<path class="st3" d="M127.3,559V458.8h32.5c12.3,0,20.3,0.5,24.1,1.5c5.7,1.5,10.5,4.8,14.4,9.8s5.8,11.5,5.8,19.5
				c0,6.2-1.1,11.3-3.3,15.5s-5.1,7.5-8.5,9.9s-6.9,4-10.5,4.8c-4.8,1-11.8,1.4-21,1.4h-13.2V559H127.3z M147.6,475.8v28.4h11.1
				c8,0,13.3-0.5,16-1.6c2.7-1,4.8-2.7,6.3-4.9c1.5-2.2,2.3-4.8,2.3-7.8c0-3.6-1.1-6.7-3.2-9c-2.1-2.4-4.9-3.9-8.1-4.4
				c-2.4-0.5-7.3-0.7-14.6-0.7H147.6z"/>
			<path class="st3" d="M220.6,458.8h37c8.3,0,14.7,0.6,19.1,1.9c5.9,1.7,10.9,4.8,15.1,9.2c4.2,4.4,7.4,9.8,9.6,16.2
				c2.2,6.4,3.3,14.3,3.3,23.7c0,8.2-1,15.4-3.1,21.3c-2.5,7.3-6.1,13.2-10.7,17.7c-3.5,3.4-8.2,6.1-14.2,8
				c-4.5,1.4-10.4,2.1-17.9,2.1h-38.1L220.6,458.8L220.6,458.8z M240.9,475.8v66.4H256c5.7,0,9.7-0.3,12.2-1c3.3-0.8,6-2.2,8.2-4.2
				s3.9-5.2,5.3-9.7s2.1-10.6,2.1-18.4c0-7.7-0.7-13.7-2.1-17.8c-1.4-4.1-3.3-7.4-5.7-9.7s-5.6-3.9-9.4-4.7c-2.8-0.6-8.4-1-16.6-1
				h-9.1V475.8z"/>
			<path class="st3" d="M321.9,559V458.8h68.7v17h-48.5v23.7H384v17h-41.8V559H321.9z"/>
		</g>
		<path class="st3" d="M400,320c0,0-54.9,90-150,90s-150-90-150-90s45-90,150-90S400,320,400,320z"/>
		<circle class="st0" cx="250" cy="320" r="75"/>
		<polygon class="st4" points="242.9,373 191.2,333.4 209.4,309.6 239.1,332.3 288.5,277.3 310.8,297.4 		"/>
	</g>
</g>
</svg>
