<?xml version="1.0" encoding="utf-8"?>
<!-- Generator: Adobe Illustrator 25.2.0, SVG Export Plug-In . SVG Version: 6.00 Build 0)  -->
<svg version="1.1" id="Logo_1_" xmlns="http://www.w3.org/2000/svg" xmlns:xlink="http://www.w3.org/1999/xlink" x="0px" y="0px"
	 viewBox="0 0 500 650" style="enable-background:new 0 0 500 650;" xml:space="preserve">
<style type="text/css">
	.st0{fill:#0CA678;}
	.st1{fill:url(#SVGID_1_);}
	.st2{enable-background:new    ;}
	.st3{fill:#F2F2F2;}
	.st4{fill:#FFFFFF;}
</style>
<g>
	<g id="Logo">
		<path class="st0" d="M450,650H50c-27.6,0-50-22.4-50-50c0,0,0,0,0,0V50C0,22.4,22.4,0,50,0h250l200,200v400
			C500,627.6,477.6,650,450,650L450,650z"/>
		
			<image style="overflow:visible;opacity:0.2;enable-background:new    ;" width="250" height="250" xlink:href="5A26B05C9E3EA52C.png"  transform="matrix(0.996 0 0 0.996 265.91 -14.83)">
		</image>
		
			<linearGradient id="SVGID_1_" gradientUnits="userSpaceOnUse" x1="337.7922" y1="501.5969" x2="641.7922" y2="737.5969" gradientTransform="matrix(1 0 0 -1 0 649.8898)">
			<stop  offset="0" style="stop-color:#FFFFFF"/>
			<stop  offset="1" style="stop-color:#B3B3B3"/>
		</linearGradient>
		<path class="st1" d="M300,0l200,200H350c-27.6,0-50-22.4-50-50V0z"/>
		<g class="st2">
			<path class="st3" d="M148.9,559h-21.4V457.7h38.4c25.9,0,33.7,15.5,33.7,31.6c0,24.4-13.3,37-39.6,37h-11.1V559z M157.6,508.9
				c11.1,0,19.9-3.2,19.9-18.1c0-13-7.7-15.8-18.2-15.8h-10.4v33.9H157.6z"/>
			<path class="st3" d="M214.4,559V457.7H250c35.1,0,50.3,18.9,50.3,49.1c0,31.1-16.4,52.2-52.6,52.2H214.4z M246.6,541.7
				c23.4,0,31.5-12.7,31.5-33.7c0-25.2-9.8-32.9-30-32.9H236v66.6H246.6z"/>
			<path class="st3" d="M337.4,559h-21.6V457.7h63.8v18.1h-42.3v25.8h38.9v17.8h-38.9V559z"/>
		</g>
		<path class="st3" d="M400,320c0,0-54.9,90-150,90s-150-90-150-90s45-90,150-90S400,320,400,320z"/>
		<circle class="st0" cx="250" cy="320" r="75"/>
		<polygon class="st4" points="242.9,373 191.2,333.4 209.4,309.6 239.1,332.3 288.5,277.3 310.8,297.4 		"/>
	</g>
</g>
</svg>
