<?xml version="1.0" encoding="utf-8"?>
<!-- Generator: Adobe Illustrator 24.0.1, SVG Export Plug-In . SVG Version: 6.00 Build 0)  -->
<svg version="1.1" id="Ebene_1" xmlns="http://www.w3.org/2000/svg" xmlns:xlink="http://www.w3.org/1999/xlink" x="0px" y="0px"
	 viewBox="0 0 512 512" style="enable-background:new 0 0 512 512;" xml:space="preserve">
<style type="text/css">
	.st0{fill:#404040;}
</style>
<path class="st0" d="M256,32C114.6,32,0,125.1,0,240c0,49.6,21.4,95,57,130.7C44.5,421.1,2.7,466,2.2,466.5
	c-2.2,2.3-2.8,5.7-1.5,8.7S4.8,480,8,480c66.3,0,116-31.8,140.6-51.4c32.7,12.3,69,19.4,107.4,19.4c141.4,0,256-93.1,256-208
	S397.4,32,256,32z M256,368c-17.7,0-32-14.3-32-32s14.3-32,32-32s32,14.3,32,32S273.7,368,256,368z M281.4,257.6
	c-0.8,8.2-7.7,14.4-15.9,14.4h-19c-8.2,0-15.1-6.2-15.9-14.4l-12.8-128c-0.9-9.4,6.5-17.6,15.9-17.6h44.6c9.5,0,16.9,8.2,15.9,17.6
	L281.4,257.6z"/>
</svg>
