<?xml version="1.0" encoding="utf-8"?>
<!-- Generator: Adobe Illustrator 24.0.1, SVG Export Plug-In . SVG Version: 6.00 Build 0)  -->
<svg version="1.1" id="Ebene_1" xmlns="http://www.w3.org/2000/svg" xmlns:xlink="http://www.w3.org/1999/xlink" x="0px" y="0px"
	 viewBox="0 0 512 512" style="enable-background:new 0 0 512 512;" xml:space="preserve">
<style type="text/css">
	.st0{fill:#404040;}
</style>
<path class="st0" d="M93.9,290C41.5,342.5,8.4,411.3,0.2,485.1v0.2c-1.7,15.3,11.2,28.2,26.5,26.5c73.9-8.2,142.8-41.2,195.3-93.8
	l75.4-75.4l-128-128C169.3,214.6,93.9,290,93.9,290z M485.5,26.5c-35.4-35.3-92.7-35.3-128,0l-21.8,21.8l-36.6-36.5
	c-15.6-15.6-41-15.6-56.6,0l-104,104c-6.2,6.2-6.2,16.4,0,22.6l22.6,22.6c6.2,6.2,16.4,6.2,22.6,0l87.1-87.2l19.6,19.6L192,192
	l128,128l165.5-165.5C520.8,119.2,520.8,61.9,485.5,26.5L485.5,26.5z"/>
</svg>
